<svg width="32" height="32" viewBox="0 0 32 32" xmlns="http://www.w3.org/2000/svg">
    <path d="M22.32 12.039c-.09-.134-.17-.274-.257-.41a.44.44 0 0 1-.062-.265.174.174 0 0 1 .041-.11l.076-.09a.174.174 0 0 1 .08-.053.15.15 0 0 0 .076-.061c.04-.057.058-.06.12-.034.03.014.062.028.094.04.02.009.033.024.04.045.02.055.023.112.015.17-.003.026-.017.045-.04.053l-.07.022a.077.077 0 0 0-.055.069l-.004.024c-.014.062-.008.113.049.147.017.01.032.033.042.054.033.068.077.126.123.184.041.052.075.114.111.172.013.02.024.042.037.061.027.04.05.037.069-.008.002-.005.001-.014.004-.015.005-.003.015-.005.016-.002.031.05.061.099.09.15.008.012-.003.021-.012.023-.016.003-.033.002-.05.003-.015.001-.03.002-.043.007-.021.007-.034.035-.027.06.004.015.011.03.018.044l.042.096c.015.031.027.065.046.093.04.056.056.12.063.19.005.052.01.101.039.147.025.04-.005.114-.047.127-.02.007-.043.01-.064.012-.036.006-.073.008-.108.015-.025.004-.045-.003-.059-.024a.768.768 0 0 0-.228-.212c-.07-.046-.084-.13-.088-.22.003-.028.006-.061.011-.093a.553.553 0 0 0-.089-.411m1.731-1.002-.002.01c0 .001-.003.003-.005.003-.003 0-.007 0-.009-.002l-.026-.027c-.006-.006-.015-.01-.027-.006-.01.003-.014 0-.015-.006-.003-.019-.003-.037-.016-.055 0 0 .004-.004.006-.004.007 0 .014 0 .019.002a.11.11 0 0 1 .028.012c.028.021.045.046.047.073m-18.825 7.18a10.996 10.996 0 0 1 .646-6.498A10.97 10.97 0 0 1 8.25 8.222c.186-.185.38-.363.578-.534.03.02.034.044.028.077a.165.165 0 0 0 .005.068c.01.036.045.054.079.04a.337.337 0 0 0 .07-.039c.117-.084.225-.18.327-.281.073-.073.148-.144.206-.231a.092.092 0 0 1 .067-.042.291.291 0 0 0 .14-.072c.138-.112.274-.227.39-.362.022-.026.046-.047.082-.051a.145.145 0 0 0 .087-.046.317.317 0 0 1 .113-.064.857.857 0 0 0 .117-.056c.026-.015.044-.028.067.004.013.018.037.014.056.005.055-.025.11-.051.163-.078.1-.05.199-.097.296-.15.074-.038.145-.083.218-.124.06-.035.12-.072.184-.103a.2.2 0 0 1 .087-.016.37.37 0 0 0 .128-.02 1 1 0 0 1 .146-.04c.146-.026.285-.073.415-.146.09-.05.186-.092.287-.12a.166.166 0 0 0 .047-.017c.01-.007.02-.02.02-.03 0-.01-.011-.027-.02-.03-.039-.012-.078-.02-.117-.03a.024.024 0 0 1-.015-.012c-.001-.004.002-.012.006-.015.028-.018.056-.037.086-.053.03-.016.04-.015.063.02.022.034.05.042.086.035a.167.167 0 0 0 .047-.015c.104-.056.186-.132.213-.251 0-.004.002-.007.003-.01A11.073 11.073 0 0 1 16.093 5a11.1 11.1 0 0 1 4.466.928l-.003.002a.212.212 0 0 0-.053.042.095.095 0 0 1-.048.033.14.14 0 0 0-.05.03c-.04.036-.074.04-.11.007-.015-.014-.026-.031-.04-.046a.233.233 0 0 0-.046-.038c-.041-.024-.092-.017-.114.023a.14.14 0 0 1-.093.069.106.106 0 0 0-.071.065.333.333 0 0 1-.034.061c-.029.043-.04.084.003.125.004.004.002.02-.002.024-.007.005-.02.006-.028.003l-.174-.1c-.013-.008-.018-.021-.01-.034.023-.035.012-.063-.016-.088a.488.488 0 0 0-.333-.119c-.029 0-.047.035-.028.059.02.026.044.05.07.07a.309.309 0 0 1 .085.096c.032.06.086.101.14.142.007.005.01.016.014.025-.006.001-.013.005-.018.004-.058-.012-.096.013-.127.059-.015.022-.037.038-.055.058-.044.053-.048.108-.009.166.023.032.053.06.078.09.005.006.004.016.005.025-.006 0-.013.004-.019.003-.09-.024-.184-.037-.266-.087a.235.235 0 0 0-.065-.027c-.045-.011-.08.025-.069.07a.126.126 0 0 0 .066.084c.038.021.078.04.116.06.006.004.008.016.012.023-.008.005-.016.012-.025.013a.175.175 0 0 1-.105-.029.81.81 0 0 0-.107-.054.342.342 0 0 1-.155-.123c-.017-.025-.035-.049-.05-.075a.587.587 0 0 0-.2-.208c-.005-.003-.006-.013-.01-.02.007-.002.014-.005.02-.004.075.015.15.032.226.046.06.011.12.021.18.027a.801.801 0 0 0 .13.002.165.165 0 0 0 .123-.06c.034-.042.037-.083.01-.13a.259.259 0 0 0-.108-.102 2.815 2.815 0 0 0-.487-.213 1.965 1.965 0 0 1-.124-.04 1.274 1.274 0 0 0-.372-.082c-.035-.002-.064-.009-.084-.044-.016-.031-.05-.033-.08-.022-.06.022-.12.008-.179-.002-.027-.004-.033-.016-.025-.04.023-.068.02-.078-.039-.112l-.053-.028c-.035-.018-.07-.025-.105-.002-.023.014-.033.001-.047-.017-.04-.054-.081-.055-.118 0-.015.022-.025.03-.053.028-.017-.001-.036.015-.052.025-.015.01-.024.01-.026-.01v-.02c-.01-.033-.03-.047-.059-.04-.06.018-.115.042-.127.113l-.006.019c-.004-.005-.01-.01-.012-.014-.006-.009-.009-.019-.014-.027-.032-.044-.067-.044-.093.002-.006.011-.009.025-.016.036-.014.025-.033.042-.065.034-.02-.005-.043-.005-.055.014-.022.035-.047.03-.075.01-.01-.008-.021-.017-.033-.023-.023-.01-.046-.005-.062.016-.008.01-.014.023-.02.035a.072.072 0 0 1-.054.04c-.036.006-.079.004-.093.046-.016.048.031.06.058.082a.024.024 0 0 1 .005.008c.002.003.004.007.002.01-.002.004-.005.012-.01.013a.12.12 0 0 1-.096-.016c-.052-.03-.099-.025-.149.01-.052.037-.11.065-.164.098a.16.16 0 0 0-.039.03c-.005.006-.006.02-.002.028.004.007.017.016.024.014a.504.504 0 0 0 .075-.024c.056-.023.11-.048.167-.07.011-.004.026-.002.039 0 .005 0 .01.008.013.014.001.004 0 .014-.003.016a.134.134 0 0 1-.035.019.124.124 0 0 0-.088.088c-.005.018-.014.04-.029.05-.064.04-.093.103-.122.167-.017.04-.031.08-.084.09-.027.006-.042.032-.048.06l-.005.019c-.008.035-.01.074-.025.106-.018.037-.067.021-.1.04-.027.015-.041.027-.03.064.01.04-.007.053-.038.067a.47.47 0 0 0-.227.175c-.01.017-.026.015-.044.012-.067-.01-.07-.01-.099.05a.103.103 0 0 1-.065.056c-.045.015-.089.03-.114.076-.006.012-.026.018-.04.023a.443.443 0 0 0-.169.088.101.101 0 0 1-.042.025c-.057.013-.072.054-.079.103-.002.013-.005.026-.005.04a.693.693 0 0 1-.032.186c-.016.053.008.084.062.089.027.002.054-.001.08 0 .012 0 .02.022.011.031-.011.011-.023.024-.038.03-.02.01-.046.013-.065.025a.21.21 0 0 0-.06.051c-.019.027 0 .064.032.068.023.003.047.001.07.005.015.002.02.015.015.03-.002.006-.006.012-.01.017-.038.065-.037.085.021.122.074.046.15.086.242.091.053.004.1-.008.14-.04a.577.577 0 0 0 .054-.046.218.218 0 0 1 .12-.068.21.21 0 0 0 .141-.087c.03-.042.082-.03.1.02.028.08.062.16.083.244a.531.531 0 0 0 .076.162c.063.092.11.19.142.296.008.029.02.057.034.083.045.08.137.092.204.03.023-.02.022-.047.029-.072.013-.047.033-.06.08-.055.017.002.033.007.05.009h.05c.005 0 .15-.08.155-.084a.246.246 0 0 0 .056-.116c.007-.027.003-.054-.022-.072-.022-.015-.029-.036-.025-.061l.025-.188c.004-.035.018-.064.052-.08a.413.413 0 0 0 .174-.188c.04-.07.033-.115-.027-.168-.054-.048-.098-.11-.172-.134-.021-.007-.029-.028-.028-.05.002-.062.003-.126.01-.189a.863.863 0 0 1 .16-.283.198.198 0 0 1 .04-.028c.089-.04.148-.115.216-.179.027-.025.04-.056.023-.09-.027-.05-.005-.09.022-.129.052-.079.107-.1.198-.072a.57.57 0 0 1 .101.042c.033.017.04.041.03.076-.008.022-.02.043-.024.066a.19.19 0 0 1-.094.124c-.09.052-.139.144-.21.213-.026.025-.03.06-.025.094.005.03.013.058.025.086.014.033.032.066.049.098a.23.23 0 0 1 .026.164c-.015.067.005.116.064.14.083.036.162.08.252.098a.418.418 0 0 0 .219-.007c.073-.024.148-.041.226-.049a.395.395 0 0 0 .216-.098c.024-.02.033-.019.048.007a.26.26 0 0 0 .073.08c.02.015.063.017.056.047-.004.02-.037.036-.058.052a.22.22 0 0 1-.197.05.452.452 0 0 0-.219.012c-.055.015-.11.026-.166.04a.33.33 0 0 0-.075.026.096.096 0 0 0-.027.154c.019.021.046.04.073.05.038.016.047.041.048.078 0 .033.007.066.01.099.004.023-.008.037-.03.042-.035.007-.059-.009-.079-.034a.147.147 0 0 0-.132-.058.124.124 0 0 0-.101.056c-.03.044-.06.089-.084.136a.228.228 0 0 0-.023.155l.03.147c.008.04.014.08-.002.118-.008.02-.021.036-.046.027-.055-.022-.099.002-.138.034-.034.027-.063.026-.101.008a.31.31 0 0 0-.282 0 .822.822 0 0 1-.14.055 1.956 1.956 0 0 0-.342.118c-.012.006-.025.009-.038.011-.016.004-.026-.005-.03-.02-.004-.012-.004-.026-.008-.038-.02-.061-.07-.091-.125-.059-.091.055-.204.045-.29.107-.008.005-.026-.001-.037-.007-.028-.017-.055-.037-.084-.053-.05-.027-.077-.072-.106-.117-.002-.003 0-.012.005-.016.004-.004.011-.005.017-.007.085-.029.093-.059.034-.126l-.029-.028c-.013-.016-.009-.031.006-.043l.056-.043c.018-.017.028-.04.017-.064-.033-.069-.03-.142-.032-.215a.261.261 0 0 0-.028-.094c-.013-.03-.056-.03-.076-.003a.246.246 0 0 0-.025.043.095.095 0 0 1-.05.047.183.183 0 0 0-.057.039.145.145 0 0 1-.068.038c-.078.026-.12.083-.119.166.001.049.007.1.02.147.021.07.05.138.075.207.02.053.034.108.016.165-.014.048-.064.084-.113.078-.027-.003-.053-.012-.078-.02-.052-.014-.1-.01-.143.025a.13.13 0 0 1-.102.031.187.187 0 0 0-.19.086c-.023.033-.048.052-.09.053-.04 0-.07.026-.092.056a.98.98 0 0 0-.079.116.45.45 0 0 1-.248.207c-.035.012-.07.026-.103.042-.053.026-.094.063-.101.127-.008.071-.05.104-.119.113a.34.34 0 0 0-.171.077c-.026.02-.058.033-.088.047a.095.095 0 0 1-.096-.011c-.014-.01-.027-.02-.042-.027a.117.117 0 0 0-.124.012c-.026.019-.039.045-.033.078.003.02.01.039.015.058.013.063-.002.088-.069.091-.046.002-.093-.008-.139-.015-.036-.006-.071-.02-.108-.024a.236.236 0 0 0-.242.142c-.014.035-.007.069.02.092.023.022.053.04.083.052.044.017.09.028.135.039.09.021.163.061.195.154a.227.227 0 0 0 .083.099c.05.04.065.085.048.15-.027.105-.043.214-.07.32-.013.055-.038.107-.06.159a.107.107 0 0 1-.094.067c-.05.004-.1.01-.15.012-.212.008-.423-.008-.634-.022a.664.664 0 0 1-.166-.037c-.072-.024-.136-.03-.198.024-.02.016-.048.022-.072.033-.025.01-.05.018-.073.032a.097.097 0 0 0-.047.103.34.34 0 0 0 .02.076.442.442 0 0 1 .015.266 1.802 1.802 0 0 1-.122.38c-.02.045-.038.092-.057.138a.134.134 0 0 0 .015.133l.022.033c.03.04.037.085.028.133l-.009.05c-.026.104.05.228.208.209l.12-.015c.04-.006.072.003.086.047a.135.135 0 0 0 .089.09c.044.015.069.05.098.083.026.029.051.031.077.002.055-.065.125-.084.207-.081.023 0 .049.003.07-.005a.866.866 0 0 1 .256-.043.361.361 0 0 0 .107-.027c.024-.01.052-.024.065-.044a.308.308 0 0 1 .12-.104.346.346 0 0 0 .14-.152.334.334 0 0 1 .06-.09.306.306 0 0 0 .093-.215.575.575 0 0 1 .016-.108.398.398 0 0 1 .125-.2c.078-.07.153-.141.234-.206a.347.347 0 0 1 .125-.062c.116-.03.17-.109.189-.22l.003-.03c.01-.055.045-.088.099-.101.06-.015.119-.01.18-.001.079.012.159.022.239.031a.2.2 0 0 0 .176-.054.117.117 0 0 1 .023-.018l.348-.202c.034-.02.07-.015.106 0a.55.55 0 0 1 .201.146c.038.043.075.086.108.132.077.103.171.187.282.254.054.033.106.07.153.113.07.064.15.11.236.15.066.031.13.069.193.106.092.054.125.146.145.241.006.028-.005.06-.011.088-.006.03-.02.057-.023.087a.148.148 0 0 0 .01.067c.01.03.053.036.075.012.026-.03.051-.061.075-.093.035-.045.064-.093.113-.126.03-.021.034-.056.024-.09-.011-.036-.026-.07-.035-.105-.01-.031.01-.055.042-.05.026.002.052.01.077.019.035.012.067.03.102.043a.272.272 0 0 0 .057.018.043.043 0 0 0 .049-.057.148.148 0 0 0-.034-.06c-.043-.041-.086-.084-.135-.118-.099-.07-.2-.135-.286-.22a.151.151 0 0 0-.088-.046l-.019-.006c-.123-.043-.126-.019-.24-.167a3.294 3.294 0 0 0-.172-.209 1.392 1.392 0 0 0-.14-.128.15.15 0 0 1-.06-.12c-.003-.107-.006-.107.085-.165a.324.324 0 0 1 .026-.015c.018-.009.034-.004.043.011.04.067.098.108.175.123.032.006.05.031.066.058.019.032.036.064.056.095a.523.523 0 0 0 .238.208.48.48 0 0 1 .096.054c.087.064.184.109.287.142.05.017.1.037.143.071a.16.16 0 0 1 .063.15c-.006.059-.004.119-.004.178 0 .067.027.122.073.17.032.034.06.073.09.108.018.02.035.042.056.056.04.026.08.046.098.095.006.015.03.028.047.033.032.009.066.01.099.015.033.004.067.005.1.011.01.003.02.016.029.025-.009.004-.017.01-.026.013-.023.004-.046.005-.07.01-.045.01-.066.034-.054.079.018.07.046.138.07.208a.016.016 0 0 0 .006.007c.066.044.132.09.2.13.02.014.048-.006.05-.032l-.003-.06c-.002-.046-.003-.046.047-.067.03-.013.04-.03.034-.062-.003-.013-.01-.024-.014-.037-.008-.026 0-.035.029-.035.023 0 .047.001.07-.001a.167.167 0 0 0 .057-.017c.054-.029.067-.086.032-.136a.165.165 0 0 0-.119-.068c-.026-.003-.053-.001-.08-.004-.019-.001-.03-.013-.033-.032a.154.154 0 0 1-.001-.03c.003-.05-.02-.089-.052-.125a.42.42 0 0 1-.06-.08.073.073 0 0 1 0-.055c.009-.022.032-.02.053-.015.013.004.025.01.038.012.061.01.104-.01.132-.066l.01-.029c.01-.03.03-.043.06-.038h.01a.19.19 0 0 0 .145-.024c.05-.03.102-.03.154-.003a.826.826 0 0 0 .072.034c.056.024.112.026.162-.013a.277.277 0 0 1 .14-.052c.109-.013.124-.08.087-.164-.015-.033-.036-.063-.056-.094a2.643 2.643 0 0 0-.062-.092c-.041-.06-.036-.118.006-.176.011-.016.022-.033.035-.048a.59.59 0 0 0 .11-.223.76.76 0 0 1 .09-.21c.026-.043.046-.09.07-.133.028-.049.057-.098.088-.145.044-.068.115-.058.181-.054.01 0 .02.017.025.028.023.054.067.07.121.07.044.001.088.001.131.003.008 0 .015.009.022.014-.006.007-.01.017-.017.022-.027.02-.058.034-.082.056-.039.036-.03.083.018.105.027.013.056.02.084.031.034.013.04.025.035.062-.002.02-.009.039-.01.059-.002.042.03.069.07.063.004 0 .008 0 .01-.002a2.01 2.01 0 0 1 .339-.095c.013-.003.025-.01.037-.016.018-.01.035-.02.037-.043.001-.03-.021-.042-.044-.047a.351.351 0 0 1-.187-.129c-.016-.018-.014-.036.007-.05a.626.626 0 0 1 .051-.031c.133-.073.274-.126.417-.176.012-.004.026-.005.04-.007.002 0 .007.003.007.005.002.005.003.012 0 .015-.008.01-.019.019-.029.028-.03.027-.045.058-.025.098.012.024.004.045-.01.065-.033.046-.068.09-.102.136-.052.071-.05.075.02.124.066.046.13.095.197.14.077.052.155.105.237.15.135.077.254.174.366.28.022.02.041.044.056.07.033.054.026.1-.025.14-.094.072-.195.115-.318.08a2.459 2.459 0 0 0-.256-.055c-.158-.028-.317-.052-.474-.091-.182-.046-.352 0-.513.086-.065.035-.13.072-.204.08a1.692 1.692 0 0 1-.231.015c-.058 0-.107.022-.135.073a.25.25 0 0 1-.146.114c-.083.029-.164.06-.245.092a.315.315 0 0 0-.055.025.063.063 0 0 0-.018.087.096.096 0 0 0 .02.023c.027.023.034.05.036.086.005.083.02.165.037.246a.222.222 0 0 0 .134.165c.122.053.225.131.324.217a.37.37 0 0 0 .04.03c.056.035.112.04.172.008.056-.03.114-.055.171-.083a.089.089 0 0 1 .095.005c.028.018.059.032.088.048.1.055.198.055.296-.005a.598.598 0 0 1 .397-.078c.042.007.062.027.06.067-.007.233-.01.467-.12.683a1.285 1.285 0 0 0-.11.32c-.01.045-.025.09-.038.134-.01.033-.034.049-.068.05-.014 0-.027-.002-.04-.003-.134-.008-.268-.015-.402-.025a.633.633 0 0 0-.342.064.24.24 0 0 1-.203.008c-.19-.065-.381-.128-.572-.19-.051-.018-.103-.03-.155-.046l-.26-.076a1.862 1.862 0 0 0-.293-.07.197.197 0 0 0-.175.055.679.679 0 0 1-.2.132.402.402 0 0 0-.054.028c-.055.036-.07.07-.056.136l.002.01c.009.03.035.064.003.092-.043.037-.087.08-.15.068a.705.705 0 0 1-.146-.04 1.482 1.482 0 0 0-.268-.083c-.055-.011-.11-.033-.162-.054a.218.218 0 0 1-.135-.124c-.02-.054-.069-.082-.122-.097a8.06 8.06 0 0 0-.302-.076 1.09 1.09 0 0 0-.14-.021.583.583 0 0 1-.311-.128c-.068-.055-.133-.112-.213-.15-.024-.011-.024-.03-.004-.046.02-.017.043-.032.064-.049.025-.021.052-.043.073-.068a.176.176 0 0 0 .04-.167c-.01-.042-.016-.085-.028-.127a.328.328 0 0 0-.248-.25 1.194 1.194 0 0 0-.35-.027c-.158.006-.315.019-.472.026-.145.006-.287.031-.43.052-.08.012-.16.019-.239.031-.173.027-.338.08-.496.158a4.783 4.783 0 0 1-.323.139.426.426 0 0 1-.266.028c-.048-.012-.1-.007-.15-.012a4.942 4.942 0 0 1-.18-.021c-.046-.007-.092-.017-.139-.021a.236.236 0 0 0-.227.099c-.055.076-.112.15-.168.225a.467.467 0 0 1-.2.161.453.453 0 0 0-.206.172c-.037.055-.075.11-.11.167a.607.607 0 0 0-.083.244.811.811 0 0 1-.21.455 1.859 1.859 0 0 1-.171.154c-.047.039-.097.072-.146.107a.507.507 0 0 0-.175.215.605.605 0 0 1-.139.207.475.475 0 0 0-.106.168c-.029.07-.054.143-.083.214-.03.074-.06.15-.1.218a.868.868 0 0 0-.116.337 1.11 1.11 0 0 1-.035.176.528.528 0 0 0 .01.333l.022.067c.07.19.078.383.042.58a1.248 1.248 0 0 0-.03.277l.001.02c.019.159.036.318.058.476a.287.287 0 0 0 .042.11c.048.076.1.15.154.222.077.101.155.2.235.3.072.087.146.174.223.257.065.072.133.14.187.221.119.176.276.307.467.4.084.042.16.097.239.149.05.033.097.07.146.106a.45.45 0 0 0 .382.076l.215-.052a.496.496 0 0 1 .22-.005c.049.01.099.016.149.023a.86.86 0 0 0 .396-.044c.08-.028.16-.049.239-.078a1.22 1.22 0 0 0 .183-.082.816.816 0 0 1 .502-.108c.05.005.1 0 .15-.003.044-.002.079.007.107.043.037.047.077.092.116.137.031.036.06.073.094.105.08.077.173.105.286.089.092-.013.187-.017.28-.017.05 0 .1.016.147.029.032.008.05.033.05.067v.02c-.015.162-.01.326-.057.485-.02.064-.03.13-.05.193a.294.294 0 0 0 .05.266c.11.154.216.314.355.446a.825.825 0 0 1 .184.26c.057.124.116.247.176.37.046.093.084.19.102.291.03.16.054.321.024.485a.955.955 0 0 1-.07.218l-.179.413-.014.037a.365.365 0 0 0 .005.319l.173.36c.025.055.052.108.076.164a.558.558 0 0 1 .05.232c-.007.288.087.55.198.809.036.082.07.165.103.249a.121.121 0 0 1 .004.057c-.003.023-.012.045-.018.068-.023.09.018.155.089.205.036.025.08.026.116.008.095-.048.203-.041.3-.081a.086.086 0 0 1 .049-.003c.05.012.1.006.149-.008.156-.042.305-.098.433-.202.153-.125.314-.24.471-.36.04-.03.078-.063.116-.096a.346.346 0 0 0 .118-.17c.012-.044.032-.087.047-.13.008-.026.029-.036.05-.047l.231-.12c.147-.079.24-.2.28-.361.01-.042.018-.085.025-.127l.018-.119a.158.158 0 0 1 .066-.118.263.263 0 0 0 .053-.046.363.363 0 0 1 .146-.102c.036-.015.068-.042.1-.066.044-.035.086-.074.132-.108a.438.438 0 0 1 .174-.072.575.575 0 0 0 .371-.252c.095-.143.162-.3.226-.457.048-.118.066-.244.075-.37.004-.059-.007-.12-.018-.178a.4.4 0 0 1 .017-.197c.01-.032.02-.063.032-.095a.286.286 0 0 0 .022-.175.136.136 0 0 1 .014-.097l.018-.035c.078-.129.135-.268.197-.404a.62.62 0 0 1 .248-.293c.05-.029.096-.062.144-.092a.917.917 0 0 0 .217-.193c.034-.04.074-.076.113-.113.024-.023.053-.042.074-.067.106-.123.242-.21.377-.296.102-.065.206-.128.293-.212.062-.06.123-.123.179-.19.066-.079.126-.163.188-.246a.925.925 0 0 0 .126-.215.277.277 0 0 1 .027-.054l.26-.38c.014-.022.032-.043.044-.066.081-.162.142-.33.174-.509a.303.303 0 0 0 0-.08.046.046 0 0 0-.057-.04.32.32 0 0 0-.074.031.363.363 0 0 1-.151.05.367.367 0 0 0-.107.027.663.663 0 0 1-.185.045.519.519 0 0 0-.173.05.334.334 0 0 1-.135.036.319.319 0 0 0-.18.054c-.01.008-.024.012-.037.016-.036.012-.066.005-.09-.024-.006-.008-.013-.016-.018-.025a.365.365 0 0 0-.133-.133c-.04-.023-.037-.035.005-.06.02-.012.042-.022.06-.036a.065.065 0 0 0 .022-.088.285.285 0 0 0-.04-.057.861.861 0 0 1-.13-.2 1.742 1.742 0 0 0-.058-.107.426.426 0 0 0-.117-.135l-.032-.025a.582.582 0 0 1-.2-.281 5.278 5.278 0 0 0-.08-.215 1.59 1.59 0 0 0-.185-.354.46.46 0 0 1-.081-.233 8.821 8.821 0 0 0-.044-.387.464.464 0 0 0-.095-.228c-.031-.04-.06-.08-.092-.119a.29.29 0 0 1-.067-.153 1.038 1.038 0 0 0-.147-.401 2.104 2.104 0 0 1-.16-.333c-.068-.178-.163-.343-.255-.51-.03-.051-.054-.106-.079-.16-.005-.012-.002-.027-.002-.04 0-.003.003-.007.006-.008.002 0 .007 0 .009.003.008.01.019.019.025.03l.118.22c.031.055.063.11.096.164.012.02.028.038.045.053a.044.044 0 0 0 .074-.019c.012-.038.02-.077.032-.115.005-.016.013-.03.021-.045.002-.002.014 0 .016.002a.13.13 0 0 1 .017.036.76.76 0 0 0 .12.251c.094.134.178.274.238.427.028.071.067.138.1.207.024.05.056.091.106.116.055.028.088.07.103.129a.367.367 0 0 0 .08.149c.034.037.047.08.043.128-.005.064.009.126.023.188.008.035.016.072.016.108 0 .052.014.1.05.137.079.084.133.183.186.283.027.05.06.096.089.145.036.064.073.128.106.193a.18.18 0 0 1 .022.125c-.01.042.004.08.022.115.006.012.012.025.02.035.052.061.056.123.015.193a.204.204 0 0 0 .006.226c.025.04.038.085.053.129a.232.232 0 0 1 .007.128c-.004.02-.008.04-.008.059 0 .028.02.056.046.056.074.002.148.004.221-.004.031-.003.06-.026.089-.044.022-.013.042-.033.063-.049.02-.014.04-.022.066-.013.05.018.093-.001.132-.03.027-.018.052-.041.078-.062.027-.02.054-.04.082-.058.02-.014.042-.02.065-.004.056.035.102.014.145-.025l.007-.007c.042-.043.076-.099.127-.126.078-.043.167-.067.252-.098.031-.012.063-.023.094-.036a.122.122 0 0 0 .075-.077c.034-.116.127-.167.229-.207a.8.8 0 0 1 .165-.04c.056-.009.096-.03.104-.09.009-.058.047-.085.101-.096.013-.002.026-.007.04-.008a.134.134 0 0 0 .115-.085.381.381 0 0 1 .123-.166c.018-.013.028-.038.035-.06.016-.043.028-.088.039-.134a.391.391 0 0 1 .098-.193.468.468 0 0 0 .1-.16c.023-.056.044-.112.069-.167.027-.06.017-.116-.015-.171a1.523 1.523 0 0 1-.06-.114.233.233 0 0 0-.133-.13c-.09-.033-.139-.102-.173-.184a.631.631 0 0 1-.054-.202c-.002-.037-.007-.073-.011-.11-.003-.02-.01-.043-.032-.044a.073.073 0 0 0-.053.02c-.039.045-.076.093-.109.143-.026.038-.044.082-.067.123-.054.1-.143.144-.254.155a3.7 3.7 0 0 0-.139.018c-.023.003-.038-.008-.048-.027a.222.222 0 0 1-.024-.116c.003-.057.008-.113.009-.17a.592.592 0 0 0-.011-.108c-.004-.019-.031-.028-.05-.019-.009.005-.018.01-.025.016l-.04.044-.077.09c-.04-.033-.04-.083-.048-.127a.833.833 0 0 0-.13-.332c-.03-.047-.051-.1-.074-.152-.033-.076-.064-.153-.096-.23-.012-.028-.025-.055-.034-.084-.026-.086.036-.167.128-.17h.05c.044-.003.07.017.081.058.027.094.072.18.124.261a.5.5 0 0 1 .041.091.22.22 0 0 0 .1.12.39.39 0 0 1 .119.092c.01.013.027.02.041.028l.224.136c.017.01.034.02.053.028.053.02.104.02.15-.02a.357.357 0 0 1 .084-.054c.064-.027.114-.005.137.059a.69.69 0 0 1 .027.106c.01.054.043.089.093.11a.767.767 0 0 0 .084.031c.097.029.194.054.29.084a.39.39 0 0 0 .16.015.398.398 0 0 1 .188.016c.016.006.033.006.05.01.027.006.055.003.075-.017.033-.034.07-.031.112-.022.05.012.098.015.149.002.049-.012.052-.01.07.03.032.066.06.133.089.201.033.081.075.155.139.218.025.025.042.06.061.09.015.023.03.044.06.048.015.003.037-.007.04.015.001.006-.018.016-.029.023-.062.039-.075.067-.05.131.022.063.05.124.079.183a.29.29 0 0 0 .06.08c.053.049.126.037.164-.024.005-.008.006-.02.013-.026.018-.02 0-.062.042-.067.004.029.014.058.011.086-.004.063-.01.126-.024.188a1.05 1.05 0 0 0-.028.257c.004.103-.005.206-.015.309-.009.099-.004.2-.002.3.002.089.008.179.012.268.006.11.014.22.017.33.002.066 0 .133-.003.2-.007.129-.017.258.004.388.016.1-.002.199-.02.298l-.025.147a.342.342 0 0 0-.006.05c0 .02.008.041.03.046.014.002.036-.002.045-.011a.476.476 0 0 0 .068-.087c.059-.1.115-.203.173-.304.021-.038.04-.077.065-.113a.617.617 0 0 0 .087-.2c.035-.136.08-.269.105-.406a3.44 3.44 0 0 1 .164-.565 10.712 10.712 0 0 1-.686 2.27 10.97 10.97 0 0 1-2.378 3.497 11.156 11.156 0 0 1-3.526 2.358 11.1 11.1 0 0 1-4.317.864 11.1 11.1 0 0 1-6.197-1.875c.037-.015.046-.04.033-.089a.616.616 0 0 0-.1-.206c-.064-.087-.11-.182-.158-.277a2.101 2.101 0 0 0-.198-.312 2.576 2.576 0 0 1-.181-.263c-.048-.084-.105-.163-.156-.244-.03-.048-.062-.096-.088-.145-.012-.023-.02-.048.004-.074.027-.03.022-.069.015-.105a.516.516 0 0 0-.026-.086.21.21 0 0 1-.006-.146.35.35 0 0 0 .005-.168 1.058 1.058 0 0 0-.16-.417c-.052-.078-.105-.155-.156-.233a.297.297 0 0 0-.197-.143.323.323 0 0 1-.134-.066c-.043-.032-.083-.068-.127-.098a4.182 4.182 0 0 0-.245-.157.27.27 0 0 0-.214-.032.146.146 0 0 1-.133-.023.546.546 0 0 0-.033-.022c-.044-.026-.088-.033-.13.002-.023.018-.037.01-.046-.013a.369.369 0 0 0-.146-.161l-.192-.129a.356.356 0 0 0-.043-.025c-.07-.033-.116-.016-.145.054-.005.012-.006.026-.01.039 0 .003-.003.005-.005.008-.004-.004-.01-.006-.012-.01-.01-.036-.017-.072-.026-.107-.022-.077-.087-.105-.154-.128-.011-.003-.026.005-.038.008-.034.009-.045.002-.043-.027a.178.178 0 0 1 .007-.04.248.248 0 0 0-.022-.202c-.019-.035-.037-.071-.06-.103a10.835 10.835 0 0 0-.194-.256l-.26-.33c-.023-.03-.045-.059-.069-.087a.272.272 0 0 0-.214-.107 10.873 10.873 0 0 1-.614-1.987m22.665-.587a12.099 12.099 0 0 0 .11-1.625V16c0-.736-.066-1.456-.193-2.155-.013-.1-.028-.2-.053-.298-.016-.066-.028-.133-.045-.198a142.264 142.264 0 0 0-.157-.619 1.192 1.192 0 0 0-.03-.093 11.916 11.916 0 0 0-.712-1.852 8.766 8.766 0 0 0-.172-.365 7.429 7.429 0 0 0-.619-1.048l-.253-.347c-.36-.502-.756-.975-1.187-1.415a18.87 18.87 0 0 0-.355-.374 6.463 6.463 0 0 0-.739-.65c-.19-.143-.38-.282-.572-.422a6.354 6.354 0 0 0-.25-.175A7.777 7.777 0 0 0 22 5.606 11.956 11.956 0 0 0 16.019 4H16c-1.37 0-2.685.23-3.911.652a7.707 7.707 0 0 0-.524.173 9.33 9.33 0 0 0-1.52.754A12.018 12.018 0 0 0 8.42 6.697a12.064 12.064 0 0 0-2.516 2.814c-.108.157-.213.317-.315.479a3.07 3.07 0 0 0-.18.317c-.06.126-.121.25-.19.37-.05.089-.098.178-.139.271-.07.161-.13.327-.2.488-.142.319-.253.647-.337.984a11.956 11.956 0 0 0-.516 2.766 5.85 5.85 0 0 0-.023.354C4 15.68 4 15.82 4 15.96V16a12.257 12.257 0 0 0 .003.322c0 .077.001.154.01.23.047 1.035.225 2.036.517 2.986.069.248.148.493.238.734.082.222.17.442.28.653.028.057.048.119.073.178.016.04.03.082.049.122.038.083.078.165.118.248.037.076.073.152.114.226.162.29.327.577.512.853.117.174.232.35.354.52.203.284.43.549.66.812.157.182.316.363.492.527l.277.252c.504.484 1.052.924 1.635 1.314.297.217.605.415.929.588a6.724 6.724 0 0 0 .897.417c.177.078.356.152.538.222a9.4 9.4 0 0 0 .542.202c.187.062.374.12.566.163.276.076.555.142.838.199.228.05.457.091.688.126.167.025.335.052.504.05.372.035.748.054 1.128.055l.049.001a11.958 11.958 0 0 0 2.968-.373l.103-.024c.1-.025.2-.055.299-.087.383-.112.759-.243 1.125-.391.191-.071.377-.153.56-.244a12.04 12.04 0 0 0 4.053-3.08c.013-.015.026-.03.04-.043.1-.106.195-.217.278-.336l.066-.094c.246-.32.478-.652.692-.996l.06-.086c.007-.01.016-.021.022-.033.086-.161.182-.317.268-.478l.03-.06c.456-.847.813-1.755 1.055-2.708a7 7 0 0 0 .181-.834c.029-.161.054-.323.077-.485l.002-.017" fill="#151515" fill-rule="evenodd"/>
</svg>
