<svg xmlns="http://www.w3.org/2000/svg" width="16" height="16" viewBox="0 0 16 16">
    <path fill="#151515" d="M8.105 16C3.632 16 0 12.36 0 7.88 0 4.842 1.681 2.075 4.353.692L5.703 0l-.51 1.444c-.27.751-.39 1.564-.39 2.406 0 4.06 3.302 7.368 7.355 7.368.84 0 1.65-.15 2.401-.39L16 10.315l-.69 1.293C13.899 14.316 11.137 16 8.105 16zM3.692 2.556C2.132 3.85 1.201 5.774 1.201 7.88c0 3.82 3.092 6.917 6.904 6.917 2.101 0 4.023-.932 5.313-2.496-.42.06-.84.09-1.26.09-4.713 0-8.556-3.85-8.556-8.571 0-.422.03-.843.09-1.264z"/>
</svg>
