<svg xmlns="http://www.w3.org/2000/svg" width="20" height="20" viewBox="0 0 20 20">
    <g>
        <path d="M10 16c-3.308 0-6-2.692-6-6s2.692-6 6-6 6 2.692 6 6-2.692 6-6 6zm0-10.667c-2.573 0-4.667 2.094-4.667 4.667S7.427 14.667 10 14.667s4.667-2.094 4.667-4.667S12.573 5.333 10 5.333zM10 2.667c-.368 0-.667-.299-.667-.667V.667C9.333.299 9.632 0 10 0c.368 0 .667.299.667.667V2c0 .368-.299.667-.667.667zM10 20c-.368 0-.667-.299-.667-.667V18c0-.368.299-.667.667-.667.368 0 .667.299.667.667v1.333c0 .368-.299.667-.667.667zM15.657 5.01c-.171 0-.342-.065-.472-.195-.26-.261-.26-.682 0-.943l.943-.943c.26-.26.682-.26.943 0 .26.261.26.682 0 .943l-.943.943c-.13.13-.3.195-.471.195zM3.4 17.266c-.17 0-.34-.065-.47-.195-.261-.261-.261-.682 0-.943l.942-.943c.26-.26.682-.26.943 0 .26.261.26.682 0 .943l-.943.943c-.13.13-.301.195-.471.195zM19.333 10.667H18c-.368 0-.667-.299-.667-.667 0-.368.299-.667.667-.667h1.333c.368 0 .667.299.667.667 0 .368-.299.667-.667.667zM2 10.667H.667C.299 10.667 0 10.368 0 10c0-.368.299-.667.667-.667H2c.368 0 .667.299.667.667 0 .368-.299.667-.667.667zM16.6 17.266c-.171 0-.342-.065-.472-.195l-.943-.943c-.26-.26-.26-.682 0-.943.261-.26.682-.26.943 0l.943.943c.26.26.26.682 0 .943-.13.13-.301.195-.472.195zM4.343 5.01c-.17 0-.341-.065-.471-.195l-.943-.943c-.26-.26-.26-.682 0-.943.261-.26.682-.26.943 0l.943.943c.26.26.26.682 0 .943-.131.13-.301.195-.472.195z"/>
    </g>
</svg>
